<?xml version="1.0" encoding="UTF-8" standalone="no"?>
<svg width="30px" height="19px" viewBox="0 0 30 19" version="1.1" xmlns="http://www.w3.org/2000/svg" xmlns:xlink="http://www.w3.org/1999/xlink" xmlns:sketch="http://www.bohemiancoding.com/sketch/ns">
    <!-- Generator: Sketch 3.2.2 (9983) - http://www.bohemiancoding.com/sketch -->
    <title>density-mode</title>
    <desc>Created with Sketch.</desc>
    <defs></defs>
    <g id="Page-1" stroke="none" stroke-width="1" fill="none" fill-rule="evenodd" sketch:type="MSPage">
        <path d="M13.9648438,19 L12.1113281,13.8457031 L5.01464844,13.8457031 L3.19921875,19 L0,19 L6.94433594,0.36328125 L10.2451172,0.36328125 L17.1894531,19 L13.9648438,19 Z M11.3115234,11.2304688 L9.57226562,6.17773438 C9.44531187,5.83919102 9.26969513,5.30599322 9.04541016,4.578125 C8.82112518,3.85025678 8.66666709,3.31705898 8.58203125,2.97851562 C8.35351448,4.01953646 8.01920793,5.15787143 7.57910156,6.39355469 L5.90332031,11.2304688 L11.3115234,11.2304688 Z M27.5808594,19 L26.4402344,15.828125 L22.0730469,15.828125 L20.9558594,19 L18.9871094,19 L23.2605469,7.53125 L25.2917969,7.53125 L29.5652344,19 L27.5808594,19 Z M25.9480469,14.21875 L24.8777344,11.109375 C24.799609,10.9010406 24.6915371,10.5729189 24.5535156,10.125 C24.4154941,9.67708109 24.320443,9.34895938 24.2683594,9.140625 C24.1277337,9.7812532 23.9220066,10.481767 23.6511719,11.2421875 L22.6199219,14.21875 L25.9480469,14.21875 Z" id="density-mode-icon" opacity="0.724930037" fill="#CFCFCF" sketch:type="MSShapeGroup"></path>
    </g>
</svg>